<?xml version="1.0" encoding="UTF-8" standalone="no"?>
<!-- Created with Inkscape (http://www.inkscape.org/) -->

<svg
   width="120mm"
   height="120mm"
   viewBox="0 0 120 120"
   version="1.1"
   id="svg1"
   xml:space="preserve"
   inkscape:version="1.4.2 (ebf0e940, 2025-05-08)"
   sodipodi:docname="logo_min.svg"
   xmlns:inkscape="http://www.inkscape.org/namespaces/inkscape"
   xmlns:sodipodi="http://sodipodi.sourceforge.net/DTD/sodipodi-0.dtd"
   xmlns="http://www.w3.org/2000/svg"
   xmlns:svg="http://www.w3.org/2000/svg"><sodipodi:namedview
     id="namedview1"
     pagecolor="#ffffff"
     bordercolor="#000000"
     borderopacity="0.25"
     inkscape:showpageshadow="2"
     inkscape:pageopacity="0.0"
     inkscape:pagecheckerboard="0"
     inkscape:deskcolor="#d1d1d1"
     inkscape:document-units="mm"
     inkscape:zoom="0.26205012"
     inkscape:cx="833.80995"
     inkscape:cy="169.81484"
     inkscape:window-width="1248"
     inkscape:window-height="842"
     inkscape:window-x="0"
     inkscape:window-y="25"
     inkscape:window-maximized="0"
     inkscape:current-layer="layer1" /><defs
     id="defs1" /><g
     inkscape:label="Слой 1"
     inkscape:groupmode="layer"
     id="layer1"
     style="display:inline"><ellipse
       style="display:inline;fill:#ffe47c;fill-opacity:1;stroke-width:1.14507"
       id="path8-6-5"
       cx="81.518349"
       cy="75.297844"
       rx="7.1419325"
       ry="6.4234004"
       transform="matrix(0.99661923,0.08215907,-0.06986863,0.9975562,0,0)" /><ellipse
       style="display:inline;fill:#ffe47c;fill-opacity:1;stroke-width:1.14507"
       id="path8-6-5-8"
       cx="45.630581"
       cy="78.565285"
       rx="7.1419325"
       ry="6.4234004"
       transform="matrix(0.99661923,0.08215907,-0.06986863,0.9975562,0,0)" /></g><g
     inkscape:label="Текст"
     inkscape:groupmode="layer"
     id="g2"
     style="display:inline" /><g
     inkscape:label="Текст c"
     inkscape:groupmode="layer"
     id="g6"
     style="display:inline" /><g
     inkscape:label="Текст a"
     inkscape:groupmode="layer"
     id="g7"
     style="display:inline" /><g
     inkscape:label="Копия Копия Слой 1"
     inkscape:groupmode="layer"
     id="g3"
     style="display:inline" /><g
     inkscape:label="Улыбка"
     inkscape:groupmode="layer"
     id="g5"
     style="display:inline"><path
       style="display:inline;fill:#162d50;fill-opacity:1;stroke-width:0.623535"
       d="m 56.961229,98.546379 c -2.341002,-0.458807 -5.103052,-1.693647 -7.257502,-3.244627 -2.777596,-1.999594 -4.840857,-4.307016 -4.604178,-5.149039 0.05475,-0.194768 0.209308,-0.489147 0.343472,-0.654176 0.472707,-0.58146 0.950694,-0.365896 2.391355,1.07848 1.677892,1.682219 3.149131,2.799063 5.028944,3.817574 5.693793,3.084984 10.306955,2.639761 14.209203,-1.371342 0.861238,-0.885267 1.515725,-1.42432 1.729315,-1.42432 0.424578,0 1.122916,0.726686 1.122916,1.1685 0,1.076529 -2.359115,3.439743 -4.710729,4.718906 -2.294478,1.248084 -5.314252,1.635971 -8.252796,1.060044 z"
       id="path5"
       sodipodi:nodetypes="sssssssssss" /></g><g
     inkscape:label="Голова"
     inkscape:groupmode="layer"
     id="g4"
     style="display:inline"><path
       style="display:inline;fill:#162d50;fill-opacity:1;stroke-width:0.623535"
       d="m 36.990364,107.20821 c -3.701141,-0.56665 -7.819049,-0.98191 -13.578465,-5.44505 -4.745767,-3.677628 -6.050897,-9.040391 -7.155625,-16.623419 l 0.101922,-3.686398 -1.01591,-0.514381 c -1.515113,-0.767136 -3.10628,-2.546134 -3.926081,-4.389527 -1.007898,-2.26635 -1.139987,-3.317269 -1.122941,-8.934293 0.0081,-2.668036 0.06489,-7.512907 0.126215,-10.766368 0.105979,-5.622746 0.128632,-5.950719 0.457901,-6.629651 0.190524,-0.392847 0.544463,-0.861608 0.786532,-1.041692 1.031231,-0.767168 1.36741,-0.81682 5.400715,-0.797667 l 3.849421,0.01828 0.164394,-0.704121 c 1.303207,-5.581822 2.963352,-10.000347 5.356281,-14.255901 5.79796,-10.311019 15.532153,-16.937738 27.735035,-18.8811 2.337001,-0.372177 7.99988,-0.415441 10.714855,-0.08186 5.257646,0.64599 10.058524,2.209426 14.572743,4.745701 10.17669,5.717689 16.794588,15.781773 19.87933,30.231239 0.248847,1.165604 0.474327,2.142325 0.501087,2.170492 0.0268,0.02817 0.673687,0.0088 1.437617,-0.04305 l 1.38897,-0.09427 V 49.63444 c 0,-2.005429 0.10714,-2.505343 0.65515,-3.056816 0.32985,-0.331925 0.54001,-0.359385 2.75045,-0.359385 4.1513,0 4.11865,-0.05845 4.69358,8.40156 0.0929,1.367397 0.31621,4.415105 0.49618,6.772686 0.46053,6.032866 0.45881,9.324135 -0.006,11.316389 -0.44194,1.894537 -1.68059,4.693101 -2.56124,5.786791 -0.54348,0.674959 -0.74882,0.814436 -1.19902,0.814436 -0.61485,0 -1.17819,-0.493054 -1.17819,-1.031186 0,-0.189934 0.33408,-0.787906 0.74241,-1.328818 0.96517,-1.278575 1.73508,-3.100162 2.141,-5.065549 0.28846,-1.396667 0.31515,-1.947027 0.23453,-4.833868 -0.05,-1.791873 -0.16364,-4.183752 -0.25241,-5.315391 -0.0888,-1.131638 -0.30543,-4.025032 -0.48144,-6.429765 -0.42436,-5.797828 -0.46261,-6.130127 -0.74011,-6.429868 -0.17767,-0.191903 -0.61524,-0.257087 -1.72579,-0.257087 h -1.48778 l 0.0951,1.813738 c 0.0884,1.685958 0.126,1.847123 0.53381,2.287621 0.2413,0.260637 0.51065,0.775416 0.59856,1.143954 0.0956,0.400869 0.17958,4.768704 0.20898,10.87197 0.0545,11.324365 0.11415,10.624683 -1.00827,11.837068 -0.88879,0.960012 -1.1965,1.022463 -5.0381,1.022463 -3.413969,0 -3.498649,-0.0086 -3.830839,-0.385784 -0.309957,-0.352015 -0.331627,-0.513377 -0.247467,-1.843206 0.0508,-0.801572 0.13561,-2.769085 0.18862,-4.372237 0.053,-1.603152 0.116107,-3.454925 0.140207,-4.11505 0.0562,-1.539638 -0.175487,-6.867525 -0.395217,-9.087406 C 94.349033,41.202884 87.062469,28.901304 75.328795,22.908502 69.869956,20.120482 62.92561,18.729111 57.147985,19.26579 48.524897,20.066781 41.29806,23.652547 35.344057,30.084324 c -5.841925,6.310706 -9.350526,14.351999 -11.107111,25.45617 -0.376486,2.379941 -0.781471,6.60403 -0.766534,7.99513 l 0.01013,0.943033 0.289555,-1.383551 c 0.418901,-2.001598 2.047983,-7.174148 3.074321,-9.761376 4.188577,-10.558716 10.6982,-18.633729 18.723521,-23.226026 2.736712,-1.566018 6.543966,-2.913266 10.268507,-3.63365 1.821786,-0.352362 8.146152,-0.295197 10.556115,0.09541 9.146798,1.482536 16.693445,6.062923 20.622959,12.51697 1.794602,2.947551 3.109858,6.553045 3.768112,10.329475 l 0.348245,1.997915 -0.446919,0.415235 c -0.468981,0.435729 -1.054497,0.429011 -1.47737,-0.01695 C 89.096458,51.694906 88.829387,50.70075 88.614105,49.602873 88.112466,47.044696 87.327458,44.588421 86.374697,42.595864 82.312911,34.101075 72.703594,28.900618 61.068924,28.900618 h -2.865719 l 0.08315,0.557246 c 0.602898,4.040382 1.011187,5.727762 1.837488,7.593992 0.683392,1.54346 1.786603,2.883117 2.980162,3.618878 1.07748,0.664205 1.30439,0.91337 1.30439,1.432335 0,0.532019 -0.369862,0.951984 -0.984259,1.11759 -1.141195,0.307603 -3.661839,-1.820953 -4.880248,-4.121124 -0.837649,-1.581354 -1.654486,-4.374132 -2.080314,-7.11263 -0.460068,-2.958694 -0.358444,-2.725644 -1.142222,-2.619402 -2.257206,0.30597 -6.386714,1.765694 -8.670895,3.065043 -7.266179,4.133344 -13.523579,11.666796 -17.360836,20.90118 -3.131868,7.536861 -5.053627,16.641991 -5.309606,25.156463 -0.08491,2.824247 -0.132551,3.251331 -0.396885,3.557801 -0.165217,0.191554 -0.458334,0.353214 -0.651372,0.359248 -1.271913,0.03972 -3.306247,-0.05165 -3.79377,-0.170383 -0.716712,-0.174601 -0.758564,-0.05534 -0.761613,2.170005 -0.0033,2.417174 1.611333,11.912895 5.979685,15.361673 5.475658,4.322987 14.064103,3.329777 17.373313,5.755357 1.630582,1.19518 -0.188881,2.38095 -4.739009,1.68432 z m 9.318169,-29.660127 c -2.120058,-0.78081 -3.823423,-2.412949 -4.834956,-4.632775 -0.797774,-1.750737 -1.085174,-3.39097 -0.982549,-5.607556 0.104993,-2.267743 0.388717,-3.437581 1.330714,-5.486736 0.617429,-1.343111 0.986498,-1.884758 2.103725,-3.087436 1.937823,-2.086037 3.621687,-2.907386 5.969223,-2.911643 2.859357,-0.0052 5.510808,1.800409 6.921054,4.713126 0.865414,1.787422 1.128708,3.074427 1.122472,5.486732 -0.0084,3.260759 -0.699887,5.579541 -2.364106,7.927965 -2.365863,3.338537 -6.067613,4.776128 -9.265577,3.598323 z m 4.529003,-2.539861 c 1.870627,-0.755983 3.930268,-3.5808 4.614467,-6.328791 0.417915,-1.678494 0.39068,-4.0846 -0.06239,-5.511885 -0.998166,-3.144474 -3.251358,-4.927594 -5.986998,-4.737962 -1.506222,0.104411 -2.596794,0.691075 -3.878324,2.086311 -1.159073,1.261916 -1.589212,1.988711 -2.239505,3.784045 -1.16658,3.220699 -0.661166,6.839772 1.265976,9.065159 1.7783,2.053507 3.899486,2.607905 6.286774,1.643123 z m -0.54559,-4.743046 c -1.126164,-0.620264 -1.549028,-1.978969 -1.052753,-3.38259 0.537314,-1.519698 1.779008,-2.112783 3.041384,-1.452697 0.947858,0.495621 1.395731,1.409142 1.300295,2.652205 -0.149933,1.952899 -1.76294,3.023564 -3.288926,2.183082 z m 15.244228,6.726371 c -1.340222,-0.405615 -2.332364,-1.08001 -3.418583,-2.32374 -1.770706,-2.027475 -2.389563,-4.001701 -2.278518,-7.268714 0.05977,-1.758617 0.144036,-2.2887 0.570868,-3.591342 2.11888,-6.466572 7.164394,-9.41228 11.889648,-6.9415 0.412411,0.215645 1.255458,0.936453 1.873444,1.601796 1.85353,1.995588 2.616969,4.126694 2.616969,7.305154 0,4.87776 -2.274466,8.967342 -6.032062,10.845898 -0.899599,0.449739 -1.245366,0.523253 -2.698557,0.573742 -1.150484,0.03998 -1.932035,-0.02236 -2.523209,-0.201294 z m 3.989947,-2.517057 c 0.901669,-0.330033 2.176379,-1.349781 2.920266,-2.336162 1.434185,-1.901711 2.122593,-3.94192 2.119395,-6.281148 -0.003,-2.387449 -0.673607,-4.245972 -2.02333,-5.609659 -1.257636,-1.27065 -1.947388,-1.581401 -3.530638,-1.590645 -1.178231,-0.0069 -1.470014,0.05584 -2.30171,0.494699 -1.925636,1.016112 -3.562774,3.353493 -4.369226,6.238038 -0.45874,1.640843 -0.387364,3.894788 0.171553,5.417363 0.434099,1.182549 1.761881,2.827027 2.650604,3.282799 1.457315,0.747378 3.00053,0.883453 4.363086,0.384715 z m -4.13516,-5.274885 c -0.991594,-0.67223 -1.284594,-2.415981 -0.6204,-3.692191 0.953766,-1.832598 3.331214,-1.59646 3.938527,0.391195 0.09945,0.325498 0.146647,0.975993 0.104878,1.445543 -0.06154,0.69186 -0.183275,0.969668 -0.642014,1.465172 -0.478849,0.517226 -0.696231,0.621839 -1.410804,0.67897 -0.656299,0.05249 -0.961947,-0.01192 -1.370187,-0.288689 z M 43.809312,49.285607 c -0.196343,-0.07845 -0.439305,-0.337789 -0.539916,-0.576302 -0.275812,-0.653857 0.02536,-1.166825 1.060728,-1.806678 3.326264,-2.055616 5.787737,-5.657622 6.597353,-9.654258 0.311525,-1.537838 1.077248,-1.996945 1.949714,-1.168999 0.243108,0.230703 0.278075,0.433924 0.199357,1.158616 -0.219601,2.021693 -1.351293,4.93287 -2.727275,7.015673 -0.957113,1.448768 -2.819684,3.322265 -4.154356,4.178725 -1.302467,0.835796 -1.897029,1.048444 -2.385605,0.853223 z M 7.9090922,48.546202 C 7.4478615,48.015898 7.5467895,47.237484 8.2853882,45.585305 9.8048543,42.186396 12.538349,39.76713 15.083736,39.56846 c 1.26978,-0.09911 1.703088,0.174958 1.703088,1.077195 0,0.700454 -0.424268,1.114493 -1.142026,1.114493 -0.919587,0 -2.642158,1.04954 -3.728901,2.271971 -1.005039,1.130524 -1.479275,1.978948 -1.9735657,3.530773 -0.163384,0.512939 -0.377618,1.037462 -0.4760767,1.165605 -0.295103,0.384075 -1.1517924,0.283784 -1.5571624,-0.182295 z M 73.059651,43.252847 c -5.139638,-2.405948 -9.182378,-6.012593 -8.514458,-7.595997 0.157741,-0.373949 0.735919,-0.755118 1.14541,-0.755118 0.0827,0 0.667368,0.563808 1.299254,1.252908 1.636797,1.784982 2.952208,2.735254 6.216675,4.491015 2.716239,1.460903 2.871676,1.571025 2.916534,2.066287 0.0558,0.615864 -0.318133,1.057369 -1.010231,1.192822 -0.332874,0.06515 -0.918792,-0.120889 -2.053184,-0.651917 z m 21.544392,-17.70543 c -0.23903,-0.180839 -0.35299,-0.44348 -0.35337,-0.814437 -5e-4,-0.475926 0.27454,-0.840175 2.103278,-2.785476 2.980245,-3.170219 6.008189,-5.635765 9.446549,-7.69198 0.8809,-0.526793 1.78569,-0.957804 2.01066,-0.957804 0.8494,0 1.37114,1.188787 0.7662,1.745761 -0.15278,0.140671 -0.77781,0.544832 -1.38896,0.898134 -1.76309,1.019244 -5.41929,3.712626 -7.06387,5.203666 -0.829394,0.751978 -2.167858,2.110142 -2.974352,3.018141 -1.539061,1.732757 -1.856841,1.905495 -2.546135,1.383995 z m -71.692841,-3.77292 c -0.136313,-0.147238 -0.364881,-0.706628 -0.507928,-1.243088 -0.79022,-2.963504 -2.580053,-6.272747 -4.589908,-8.486337 -1.571535,-1.730839 -4.225691,-3.4664481 -5.391852,-4.0769398 -1.166161,-0.6104917 -0.903611,-2.098161 -0.05755,-2.612179 0.846064,-0.514018 2.91823,1.5977702 2.91823,1.5977702 l 1.109476,0.7974581 c 2.353026,1.6912841 5.126688,5.1482805 6.50434,8.1067835 0.571968,1.228297 1.461455,3.72834 1.65142,4.641572 0.136157,0.654559 0.113413,0.768935 -0.225765,1.135296 -0.433062,0.467769 -1.050154,0.528889 -1.410466,0.139702 z"
       id="path4"
       sodipodi:nodetypes="sscssssssscsssssssscssssscsssssssssscsssssssccssssssscssssssscssscscssssssssssssccsssssssssssssssssssssssssscsssssssscsssssssssssssssssssssssssssssssssssssssssssssssssssssssssczzssssscs" /></g></svg>
