<?xml version="1.0" encoding="UTF-8" standalone="no"?>
<!-- Created with Inkscape (http://www.inkscape.org/) -->

<svg
   width="300mm"
   height="120mm"
   viewBox="0 0 300 120"
   version="1.1"
   id="svg1"
   xml:space="preserve"
   inkscape:version="1.4.2 (ebf0e940, 2025-05-08)"
   sodipodi:docname="logo.svg"
   xmlns:inkscape="http://www.inkscape.org/namespaces/inkscape"
   xmlns:sodipodi="http://sodipodi.sourceforge.net/DTD/sodipodi-0.dtd"
   xmlns="http://www.w3.org/2000/svg"
   xmlns:svg="http://www.w3.org/2000/svg"><sodipodi:namedview
     id="namedview1"
     pagecolor="#ffffff"
     bordercolor="#000000"
     borderopacity="0.25"
     inkscape:showpageshadow="2"
     inkscape:pageopacity="0.0"
     inkscape:pagecheckerboard="0"
     inkscape:deskcolor="#d1d1d1"
     inkscape:document-units="mm"
     inkscape:zoom="0.26205012"
     inkscape:cx="833.80995"
     inkscape:cy="169.81484"
     inkscape:window-width="1248"
     inkscape:window-height="842"
     inkscape:window-x="0"
     inkscape:window-y="25"
     inkscape:window-maximized="0"
     inkscape:current-layer="layer1" /><defs
     id="defs1" /><g
     inkscape:label="Слой 1"
     inkscape:groupmode="layer"
     id="layer1"
     style="display:inline"><ellipse
       style="fill:#ffe47c;fill-opacity:1;stroke-width:5.07106"
       id="path8"
       cx="157.47302"
       cy="9.3656569"
       rx="23.973337"
       ry="37.529617"
       transform="matrix(0.94603311,0.32406998,-0.29843303,0.95443058,0,0)" /><ellipse
       style="display:inline;fill:#ffe47c;fill-opacity:1;stroke-width:1.3669"
       id="path8-6"
       cx="235.17706"
       cy="-10.924633"
       rx="6.0774384"
       ry="10.75618"
       transform="matrix(0.92239783,0.38624117,-0.4406254,0.89769107,0,0)" /><ellipse
       style="display:inline;fill:#ffe47c;fill-opacity:1;stroke-width:1.60241"
       id="path8-6-1"
       cx="273.18121"
       cy="-16.997749"
       rx="8.3888235"
       ry="10.709135"
       transform="rotate(20.253883)" /><ellipse
       style="display:inline;fill:#ffe47c;fill-opacity:1;stroke-width:1.14507"
       id="path8-6-5"
       cx="87.927284"
       cy="75.830925"
       rx="7.1419325"
       ry="6.4234004"
       transform="matrix(0.99661923,0.08215907,-0.06986863,0.9975562,0,0)" /><ellipse
       style="display:inline;fill:#ffe47c;fill-opacity:1;stroke-width:1.14507"
       id="path8-6-5-8"
       cx="52.039478"
       cy="79.098366"
       rx="7.1419325"
       ry="6.4234004"
       transform="matrix(0.99661923,0.08215907,-0.06986863,0.9975562,0,0)" /></g><g
     inkscape:label="Текст"
     inkscape:groupmode="layer"
     id="g2"
     style="display:inline"><path
       style="display:inline;fill:#162d50;stroke-width:0.945577;fill-opacity:1"
       d="m 131.58024,91.507981 c -0.39413,-0.527019 -0.48539,-0.912055 -0.38008,-1.603619 0.23805,-1.562936 2.27096,-21.265867 3.16484,-30.673575 1.24199,-13.071179 2.2198,-25.478379 2.02418,-25.684132 -0.057,-0.06002 -0.50123,0.06565 -0.98713,0.279164 -1.85644,0.815856 -3.33855,0.250653 -3.33855,-1.273156 0,-1.101858 0.72281,-1.589403 3.96195,-2.672342 3.33847,-1.116142 6.10889,-1.567633 9.61926,-1.567633 3.47382,0 5.82614,0.432939 8.86176,1.630986 8.8987,3.511988 14.87457,14.265028 16.14632,29.053817 0.87454,10.16976 -1.99384,19.780296 -7.7302,25.900173 -6.46787,6.900284 -13.97143,8.731848 -25.12473,6.132726 -3.10734,-0.724112 -3.29491,-0.740318 -3.29491,-0.284789 0,0.561886 -1.08484,1.455924 -1.76662,1.455924 -0.40214,0 -0.82888,-0.256012 -1.15609,-0.693544 z m 19.21635,-3.298677 c 5.68306,-1.209205 10.8508,-5.630926 13.77629,-11.78754 1.99253,-4.193184 2.74585,-8.093722 2.7255,-14.111989 -0.0242,-7.193115 -1.23449,-12.791 -4.03234,-18.652215 -1.34472,-2.817054 -2.18682,-4.086911 -4.1042,-6.188987 -3.62021,-3.968962 -8.67938,-5.847188 -14.73602,-5.470777 -1.49957,0.0932 -3.1107,0.259129 -3.58029,0.368761 -1.00617,0.234875 -0.81286,-1.001479 -1.95375,12.495645 -0.96444,11.409971 -1.536,17.519043 -2.68857,28.737155 -0.52197,5.080324 -1.02169,10.065786 -1.1105,11.078838 l -0.16147,1.841888 1.00557,0.274898 c 0.55308,0.151201 1.47214,0.40434 2.04236,0.5625 4.22351,1.171554 9.62704,1.530672 12.81742,0.851823 z m 62.27947,-0.155062 c -1.60138,-3.262317 -0.92084,-9.41302 1.52227,-13.758109 1.22956,-2.186805 4.00442,-5.047326 5.71185,-5.888181 1.19706,-0.589511 1.77099,-0.709601 3.39238,-0.709765 1.6272,-1.8e-4 2.12588,0.104751 3.00039,0.631471 1.77791,1.070799 2.50028,2.993811 1.62074,4.314576 -0.58799,0.88295 -1.48074,0.723907 -2.72882,-0.486137 -1.01832,-0.987282 -1.16508,-1.048756 -2.24309,-0.939815 -2.16769,0.219081 -4.62063,2.505819 -6.13208,5.716644 -0.88171,1.873015 -1.67446,4.794322 -1.68508,6.209469 -0.0108,1.335685 0.5566,3.183619 1.19741,3.905131 0.83965,0.945412 1.62239,1.164836 2.88238,0.807979 3.01053,-0.852647 7.59352,-7.341443 8.71126,-12.333775 0.20536,-0.917293 0.49069,-2.185878 0.63406,-2.819085 0.32575,-1.43879 0.84317,-2.055985 1.72359,-2.055985 0.67137,0 1.68449,0.844415 1.67425,1.395453 -0.003,0.14978 -0.2244,1.657885 -0.49249,3.351326 -0.6667,4.211441 -0.84191,8.016266 -0.48442,10.51984 0.58611,4.104638 0.58886,4.211321 0.12278,4.753045 -0.6153,0.715138 -1.84412,0.662432 -2.53281,-0.108642 -0.44745,-0.500947 -0.60321,-1.122797 -0.83699,-3.341715 l -0.28724,-2.726245 -1.09363,1.579561 c -2.91702,4.213124 -5.90692,5.978874 -8.64475,5.522637 -2.56373,-0.164312 -3.7974,-1.241608 -5.03196,-3.539678 z m 26.30091,3.0973 c -0.56439,-0.593626 -0.57428,-0.09652 0.15517,-7.802074 1.80199,-19.034268 -0.4516,3.728015 2.92928,-38.230686 1.79099,-22.2273 1.6114,-21.007899 3.13844,-21.309222 0.46962,-0.09261 5.22196,-0.113356 10.56076,-0.04597 9.23502,0.116543 9.57862,0.689561 12.30676,1.30818 3.06412,0.694802 5.91404,1.267778 6.91079,2.316154 0.7535,0.792524 0.80915,2.001502 0.12525,2.720848 -0.66513,0.699574 -1.30499,0.645558 -2.77569,-0.234342 -3.12056,-1.866967 -11.42021,-2.774504 -16.7117,-2.863057 -5.29149,-0.08855 -8.66681,-0.649022 -8.72105,0.92498 -0.0542,1.574002 -0.54627,5.577355 -0.82204,8.715254 -0.42367,4.799463 -2.25757,27.32596 -2.25757,27.32596 h 6.14123 c 0,0 5.06754,-0.460705 6.14125,0 1.07371,0.460705 0.59878,0.629796 0.59878,0.629796 0.71948,0.756739 0.75868,1.414713 0.13277,2.228316 -0.46508,0.604596 -0.47804,0.605897 -6.83047,0.685658 -3.50047,0.04399 -6.36673,0.159402 -6.36948,0.256582 -0.84037,7.784938 -0.91167,15.716155 -2.33722,23.426059 -0.18168,0.826034 -1.68016,0.615565 -2.31525,-0.05253 z m -66.49641,-0.07482 c -0.57943,-0.445627 -0.57013,-0.754863 0.21682,-7.21406 0.34387,-2.822406 0.84888,-7.152215 1.12227,-9.62182 0.57552,-5.198991 0.81622,-5.794009 2.32245,-5.741245 1.07333,0.03756 1.333,0.379904 1.33832,1.764224 0.008,2.132828 -2.23715,20.016212 -2.58524,20.590679 -0.40771,0.672863 -1.67684,0.789661 -2.41462,0.222222 z m 31.80837,-0.02769 c -1.97697,-0.740722 -3.58755,-2.645492 -4.01675,-4.750367 -0.36063,-1.768742 -0.33609,-3.164914 0.22339,-12.699191 0.26498,-4.515833 0.48275,-8.816791 0.4839,-9.557668 l 0.002,-1.347058 h -3.13349 c -2.72585,0 -3.186,-0.06106 -3.5372,-0.469211 -0.54763,-0.636485 -0.50852,-1.729805 0.0842,-2.353196 0.43784,-0.460517 0.81316,-0.513147 3.65916,-0.513147 h 3.17131 v -0.717428 c 0,-0.394583 0.1168,-3.136795 0.25947,-6.093822 0.28423,-5.889483 0.44567,-6.530996 1.64345,-6.530996 0.36955,0 0.9312,0.191007 1.24811,0.424483 l 0.5762,0.424483 -0.16299,5.156162 c -0.0897,2.835889 -0.22963,5.664029 -0.3111,6.284756 l -0.14815,1.128576 2.09996,-0.179215 c 2.79577,-0.238593 3.56572,0.153641 3.57333,1.820371 0.006,1.287499 -0.67319,1.618184 -3.323,1.618184 h -2.24239 l -0.14213,1.860219 c -0.0782,1.023102 -0.24873,3.765334 -0.37965,6.093809 -0.13093,2.328488 -0.36021,6.232962 -0.50952,8.676617 -0.32842,5.375543 -0.15214,6.543522 1.17205,7.766449 0.86595,0.799672 0.87424,0.801483 2.88401,0.625396 1.84123,-0.161318 2.05949,-0.130341 2.52365,0.357831 0.61949,0.651584 0.66022,1.852169 0.0813,2.39352 -1.00432,0.938991 -4.01555,1.241423 -5.77959,0.580442 z m 84.3084,-0.132 c -1.07667,-0.456268 -1.11275,-0.951826 -0.45288,-6.221586 1.50335,-12.005797 1.47266,-11.633286 1.01929,-12.361039 -0.27805,-0.446331 -0.62974,-0.659201 -1.08911,-0.659201 -1.48803,0 -4.84562,3.016258 -7.14369,6.417445 -1.85501,2.745475 -2.09733,3.429756 -2.41046,6.806642 -0.40503,4.367969 -0.51437,4.805201 -1.30146,5.204004 -0.76659,0.388399 -1.80804,0.138272 -2.20915,-0.53049 -0.17234,-0.287379 -0.15882,-1.401679 0.0435,-3.576872 0.28607,-3.076399 0.85544,-10.872507 1.16347,-15.930428 0.10296,-1.690718 0.27006,-2.631161 0.51287,-2.886545 0.5267,-0.554 1.70554,-0.466547 2.3122,0.171523 0.50054,0.526481 0.51649,0.701655 0.36806,4.041174 l -0.15517,3.490826 0.52686,-0.769744 c 1.08908,-1.591173 3.79097,-4.141241 5.23821,-4.943846 2.63611,-1.461926 4.87413,-1.360766 6.39446,0.289053 1.47724,1.603101 1.56375,3.415779 0.53681,11.249463 -0.39401,3.005572 -0.79451,6.324127 -0.88999,7.374588 -0.13631,1.499472 -0.29452,2.037101 -0.73621,2.501669 -0.6022,0.633402 -0.88901,0.68874 -1.72756,0.333364 z M 176.39914,62.622503 c -1.06396,-0.859202 -1.21988,-2.237865 -0.35586,-3.146642 1.21002,-1.272685 3.30435,-0.370866 3.30435,1.422867 0,1.535581 -1.84549,2.61449 -2.94849,1.723775 z"
       id="path2"
       sodipodi:nodetypes="sssscsssssssssssssssssssscscsssssssssssssssssssssscssssscsssssszzscczssssssscsssssccsccsssscssssccscscscssssssscccsssssssssssscsssssssssssss" /></g><g
     inkscape:label="Текст c"
     inkscape:groupmode="layer"
     id="g6"
     style="display:inline"><path
       style="display:inline;fill:#162d50;stroke-width:0.945577;fill-opacity:1"
       d="m 181.34456,88.534742 c -1.60138,-3.262317 -0.92084,-9.41302 1.52227,-13.758109 1.22956,-2.186805 4.00442,-5.047326 5.71185,-5.888181 2.2897,-1.127597 5.07506,-0.871956 6.39277,-0.07829 1.77791,1.070799 2.50028,2.993811 1.62074,4.314576 -0.58799,0.88295 -1.48074,0.723907 -2.72882,-0.486137 -1.01832,-0.987282 -1.16508,-1.048756 -2.24309,-0.939815 -2.16769,0.219081 -4.62063,2.505819 -6.13208,5.716644 -0.88171,1.873015 -1.60952,4.796301 -1.68508,6.209469 -0.19716,3.687671 1.63839,5.619241 6.22162,5.070081 3.10027,-0.371473 4.19615,-4.010655 6.43445,-4.209649 2.23829,-0.198993 1.96102,2.350119 -0.94578,5.128707 -2.90679,2.778588 -7.28343,3.050117 -10.2078,2.281901 -2.21043,-0.678974 -3.32623,-2.067932 -3.96105,-3.361193 z"
       id="path6"
       sodipodi:nodetypes="sssssssssszzcs" /></g><g
     inkscape:label="Текст a"
     inkscape:groupmode="layer"
     id="g7"
     style="display:inline"><path
       style="display:inline;fill:#162d50;stroke-width:0.945577;fill-opacity:1"
       d="m 257.42554,90.568987 c -1.13799,-0.445402 -2.70148,-1.978734 -3.3363,-3.271995 -1.60138,-3.262317 -0.92084,-9.41302 1.52227,-13.758109 1.22956,-2.186805 4.00442,-5.047326 5.71185,-5.888181 1.19706,-0.589511 1.77099,-0.709601 3.39238,-0.709765 1.6272,-1.8e-4 2.12588,0.104751 3.00039,0.631471 1.77791,1.070799 2.50028,2.904568 1.62074,4.225333 -0.58799,0.88295 -1.48074,0.81315 -2.72882,-0.396894 -1.01832,-0.987282 -1.16508,-1.048756 -2.24309,-0.939815 -2.16769,0.219081 -4.62063,2.505819 -6.13208,5.716644 -0.88171,1.873015 -1.67446,4.794322 -1.68508,6.209469 -0.0108,1.335685 0.5566,3.183619 1.19741,3.905131 0.83965,0.945412 2.33633,1.343322 3.59632,0.986465 3.01053,-0.852647 5.54094,-4.66416 6.65868,-9.656492 0.1848,-1.862816 0.008,-7.476707 3.5178,-7.641596 0.67063,-0.0315 0.33364,1.654458 0.24637,2.198638 -0.72326,4.509897 0.088,8.2984 0.62946,12.978738 0.58611,4.104638 0.58886,4.211321 0.12278,4.753045 -0.6153,0.715138 -1.84412,0.662432 -2.53281,-0.108642 -0.44745,-0.500947 -0.60321,-1.122796 -0.83699,-3.341715 l -0.28724,-2.726245 -1.4506,2.382746 c -2.66473,4.377056 -6.94778,5.639785 -9.98339,4.451724 z"
       id="path7"
       sodipodi:nodetypes="sssssssssssssssssssscsss" /></g><g
     inkscape:label="Копия Копия Слой 1"
     inkscape:groupmode="layer"
     id="g3"
     style="display:inline" /><g
     inkscape:label="Улыбка"
     inkscape:groupmode="layer"
     id="g5"
     style="display:inline"><path
       style="display:inline;fill:#162d50;stroke-width:0.623535;fill-opacity:1"
       d="m 63.311233,99.604716 c -2.341002,-0.45881 -5.103052,-1.69365 -7.257502,-3.24463 -2.777596,-1.999594 -4.840857,-4.307016 -4.604178,-5.149039 0.05475,-0.194768 0.209308,-0.489147 0.343472,-0.654176 0.472707,-0.58146 0.950694,-0.365896 2.391355,1.07848 1.677892,1.682219 3.149131,2.799063 5.028944,3.817574 5.693793,3.084981 10.306955,2.639761 14.209203,-1.371342 0.861238,-0.885267 1.515725,-1.42432 1.729315,-1.42432 0.424578,0 1.122916,0.726686 1.122916,1.1685 0,1.076529 -2.359115,3.439743 -4.710729,4.718903 -2.294478,1.24809 -5.314252,1.635974 -8.252796,1.06005 z"
       id="path5"
       sodipodi:nodetypes="sssssssssss" /></g><g
     inkscape:label="Голова"
     inkscape:groupmode="layer"
     id="g4"
     style="display:inline"><path
       style="display:inline;fill:#162d50;fill-opacity:1;stroke-width:0.623535"
       d="M 43.340368,108.26655 C 39.639227,107.6999 35.521319,107.28464 29.761903,102.8215 25.016136,99.143864 23.711006,93.781103 22.606278,86.198075 L 22.7082,82.511677 21.69229,81.997296 c -1.515113,-0.767136 -3.10628,-2.546134 -3.926081,-4.389527 -1.007898,-2.26635 -1.139987,-3.317269 -1.122941,-8.934293 0.0081,-2.668036 0.06489,-7.512907 0.126215,-10.766368 0.105979,-5.622746 0.128632,-5.950719 0.457901,-6.629651 0.190524,-0.392847 0.544463,-0.861608 0.786532,-1.041692 1.031231,-0.767168 1.36741,-0.81682 5.400715,-0.797667 l 3.849421,0.01828 0.164394,-0.704121 c 1.303207,-5.581822 2.963352,-10.000347 5.356281,-14.255901 5.79796,-10.311019 15.532153,-16.937738 27.735035,-18.8811 2.337001,-0.372177 7.99988,-0.415441 10.714855,-0.08186 5.257646,0.64599 10.058524,2.209426 14.572743,4.745701 10.17669,5.717689 16.7946,15.781773 19.87936,30.231239 0.24885,1.165604 0.47433,2.142325 0.50109,2.170492 0.0268,0.02817 0.67369,0.0088 1.43762,-0.04305 l 1.38897,-0.09427 v -1.850734 c 0,-2.005429 0.10714,-2.505343 0.65515,-3.056816 0.32985,-0.331925 0.54001,-0.359385 2.75045,-0.359385 4.1513,0 4.11865,-0.05845 4.69358,8.40156 0.0929,1.367397 0.31621,4.415105 0.49618,6.772686 0.46053,6.032866 0.45881,9.324135 -0.006,11.316389 -0.44194,1.894537 -1.68059,4.693101 -2.56124,5.786791 -0.54348,0.674959 -0.74882,0.814436 -1.19902,0.814436 -0.61485,0 -1.17819,-0.493054 -1.17819,-1.031186 0,-0.189934 0.33408,-0.787906 0.74241,-1.328818 0.96517,-1.278575 1.73508,-3.100162 2.141,-5.065549 0.28846,-1.396667 0.31515,-1.947027 0.23453,-4.833868 -0.05,-1.791873 -0.16364,-4.183752 -0.25241,-5.315391 -0.0888,-1.131638 -0.30543,-4.025032 -0.48144,-6.429765 -0.42436,-5.797828 -0.46261,-6.130127 -0.74011,-6.429868 -0.17767,-0.191903 -0.61524,-0.257087 -1.72579,-0.257087 h -1.48778 l 0.0951,1.813738 c 0.0884,1.685958 0.126,1.847123 0.53381,2.287621 0.2413,0.260637 0.51065,0.775416 0.59856,1.143954 0.0956,0.400869 0.17958,4.768704 0.20898,10.87197 0.0545,11.324365 0.11415,10.624683 -1.00827,11.837068 -0.88879,0.960012 -1.1965,1.022463 -5.0381,1.022463 -3.41399,0 -3.49867,-0.0086 -3.83086,-0.385784 -0.30996,-0.352015 -0.33163,-0.513377 -0.24747,-1.843206 0.0508,-0.801572 0.13561,-2.769085 0.18862,-4.372237 0.053,-1.603152 0.11611,-3.454925 0.14021,-4.11505 0.0562,-1.539638 -0.17549,-6.867525 -0.39522,-9.087406 -1.64204,-16.588816 -8.928607,-28.890396 -20.662281,-34.883198 -5.458839,-2.78802 -12.403185,-4.179391 -18.18081,-3.642712 -8.623088,0.800991 -15.849925,4.386757 -21.803928,10.818534 -5.841925,6.310706 -9.350526,14.351999 -11.107111,25.45617 -0.376486,2.379941 -0.781471,6.60403 -0.766534,7.99513 l 0.01013,0.943033 0.289555,-1.383551 c 0.418901,-2.001598 2.047983,-7.174148 3.074321,-9.761376 4.188577,-10.558716 10.6982,-18.633729 18.723521,-23.226026 2.736712,-1.566018 6.543966,-2.913266 10.268507,-3.63365 1.821786,-0.352362 8.146152,-0.295197 10.556115,0.09541 9.146798,1.482536 16.693445,6.062923 20.622959,12.51697 1.794602,2.947551 3.109858,6.553045 3.768112,10.329475 l 0.348245,1.997915 -0.446919,0.415235 c -0.468981,0.435729 -1.054497,0.429011 -1.47737,-0.01695 C 95.446462,52.75324 95.179391,51.759084 94.964109,50.661207 94.46247,48.10303 93.677462,45.646755 92.724701,43.654198 88.662915,35.159409 79.053598,29.958952 67.418928,29.958952 h -2.865719 l 0.08315,0.557246 c 0.602898,4.040382 1.011187,5.727762 1.837488,7.593992 0.683392,1.54346 1.786603,2.883117 2.980162,3.618878 1.07748,0.664205 1.30439,0.91337 1.30439,1.432335 0,0.532019 -0.369862,0.951984 -0.984259,1.11759 -1.141195,0.307603 -3.661839,-1.820953 -4.880248,-4.121124 -0.837649,-1.581354 -1.654486,-4.374132 -2.080314,-7.11263 -0.460068,-2.958694 -0.358444,-2.725644 -1.142222,-2.619402 -2.257206,0.30597 -6.386714,1.765694 -8.670895,3.065043 -7.266179,4.133344 -13.523579,11.666796 -17.360836,20.90118 -3.131868,7.536861 -5.053627,16.641991 -5.309606,25.156463 -0.08491,2.824247 -0.132551,3.251331 -0.396885,3.557801 -0.165217,0.191554 -0.458334,0.353214 -0.651372,0.359248 -1.271913,0.03972 -3.306247,-0.05165 -3.79377,-0.170383 -0.716712,-0.174601 -0.758564,-0.05534 -0.761613,2.170005 -0.0033,2.417174 1.611333,11.912895 5.979685,15.361676 5.475658,4.32299 14.064103,3.32978 17.373313,5.75536 1.630582,1.19518 -0.188881,2.38095 -4.739009,1.68432 z m 9.318169,-29.660133 c -2.120058,-0.78081 -3.823423,-2.412949 -4.834956,-4.632775 -0.797774,-1.750737 -1.085174,-3.39097 -0.982549,-5.607556 0.104993,-2.267743 0.388717,-3.437581 1.330714,-5.486736 0.617429,-1.343111 0.986498,-1.884758 2.103725,-3.087436 1.937823,-2.086037 3.621687,-2.907386 5.969223,-2.911643 2.859357,-0.0052 5.510808,1.800409 6.921054,4.713126 0.865414,1.787422 1.128708,3.074427 1.122472,5.486732 -0.0084,3.260759 -0.699887,5.579541 -2.364106,7.927965 -2.365863,3.338537 -6.067613,4.776128 -9.265577,3.598323 z m 4.529003,-2.539861 c 1.870627,-0.755983 3.930268,-3.5808 4.614467,-6.328791 0.417915,-1.678494 0.39068,-4.0846 -0.06239,-5.511885 -0.998166,-3.144474 -3.251358,-4.927594 -5.986998,-4.737962 -1.506222,0.104411 -2.596794,0.691075 -3.878324,2.086311 -1.159073,1.261916 -1.589212,1.988711 -2.239505,3.784045 -1.16658,3.220699 -0.661166,6.839772 1.265976,9.065159 1.7783,2.053507 3.899486,2.607905 6.286774,1.643123 z M 56.64195,71.32351 c -1.126164,-0.620264 -1.549028,-1.978969 -1.052753,-3.38259 0.537314,-1.519698 1.779008,-2.112783 3.041384,-1.452697 0.947858,0.495621 1.395731,1.409142 1.300295,2.652205 -0.149933,1.952899 -1.76294,3.023564 -3.288926,2.183082 z m 15.244228,6.726371 c -1.340222,-0.405615 -2.332364,-1.08001 -3.418583,-2.32374 -1.770706,-2.027475 -2.389563,-4.001701 -2.278518,-7.268714 0.05977,-1.758617 0.144036,-2.2887 0.570868,-3.591342 2.11888,-6.466572 7.164394,-9.41228 11.889648,-6.9415 0.412411,0.215645 1.255458,0.936453 1.873444,1.601796 1.85353,1.995588 2.616969,4.126694 2.616969,7.305154 0,4.87776 -2.274466,8.967342 -6.032062,10.845898 -0.899599,0.449739 -1.245366,0.523253 -2.698557,0.573742 -1.150484,0.03998 -1.932035,-0.02236 -2.523209,-0.201294 z m 3.989947,-2.517057 c 0.901669,-0.330033 2.176379,-1.349781 2.920266,-2.336162 1.434185,-1.901711 2.122593,-3.94192 2.119395,-6.281148 -0.003,-2.387449 -0.673607,-4.245972 -2.02333,-5.609659 -1.257636,-1.27065 -1.947388,-1.581401 -3.530638,-1.590645 -1.178231,-0.0069 -1.470014,0.05584 -2.30171,0.494699 -1.925636,1.016112 -3.562774,3.353493 -4.369226,6.238038 -0.45874,1.640843 -0.387364,3.894788 0.171553,5.417363 0.434099,1.182549 1.761881,2.827027 2.650604,3.282799 1.457315,0.747378 3.00053,0.883453 4.363086,0.384715 z m -4.13516,-5.274885 c -0.991594,-0.67223 -1.284594,-2.415981 -0.6204,-3.692191 0.953766,-1.832598 3.331214,-1.59646 3.938527,0.391195 0.09945,0.325498 0.146647,0.975993 0.104878,1.445543 -0.06154,0.69186 -0.183275,0.969668 -0.642014,1.465172 -0.478849,0.517226 -0.696231,0.621839 -1.410804,0.67897 -0.656299,0.05249 -0.961947,-0.01192 -1.370187,-0.288689 z M 50.159316,50.343941 c -0.196343,-0.07845 -0.439305,-0.337789 -0.539916,-0.576302 -0.275812,-0.653857 0.02536,-1.166825 1.060728,-1.806678 3.326264,-2.055616 5.787737,-5.657622 6.597353,-9.654258 0.311525,-1.537838 1.077248,-1.996945 1.949714,-1.168999 0.243108,0.230703 0.278075,0.433924 0.199357,1.158616 -0.219601,2.021693 -1.351293,4.93287 -2.727275,7.015673 -0.957113,1.448768 -2.819684,3.322265 -4.154356,4.178725 -1.302467,0.835796 -1.897029,1.048444 -2.385605,0.853223 z M 14.259095,49.604536 c -0.461231,-0.530304 -0.362303,-1.308718 0.376296,-2.960897 1.519467,-3.398909 4.252962,-5.818175 6.798349,-6.016845 1.26978,-0.09911 1.703088,0.174958 1.703088,1.077195 0,0.700454 -0.424268,1.114493 -1.142026,1.114493 -0.919587,0 -2.642158,1.04954 -3.728901,2.271971 -1.005039,1.130524 -1.479275,1.978948 -1.973566,3.530773 -0.163384,0.512939 -0.377618,1.037462 -0.476077,1.165605 -0.295103,0.384075 -1.151793,0.283784 -1.557163,-0.182295 z m 65.15056,-5.293355 c -5.139638,-2.405948 -9.182378,-6.012593 -8.514458,-7.595997 0.157741,-0.373949 0.735919,-0.755118 1.14541,-0.755118 0.0827,0 0.667368,0.563808 1.299254,1.252908 1.636797,1.784982 2.952208,2.735254 6.216675,4.491015 2.716239,1.460903 2.871676,1.571025 2.916534,2.066287 0.0558,0.615864 -0.318133,1.057369 -1.010231,1.192822 -0.332874,0.06515 -0.918792,-0.120889 -2.053184,-0.651917 z m 21.544395,-17.70543 c -0.23903,-0.180839 -0.35299,-0.44348 -0.35337,-0.814437 -5e-4,-0.475926 0.27454,-0.840175 2.10329,-2.785476 2.98026,-3.170219 6.00821,-5.635765 9.44657,-7.69198 0.8809,-0.526793 1.78569,-0.957804 2.01066,-0.957804 0.8494,0 1.37114,1.188787 0.7662,1.745761 -0.15278,0.140671 -0.77781,0.544832 -1.38896,0.898134 -1.76309,1.019244 -5.41929,3.712626 -7.06387,5.203666 -0.8294,0.751978 -2.16787,2.110142 -2.97437,3.018141 -1.53907,1.732757 -1.85685,1.905495 -2.54615,1.383995 z M 29.261206,22.832831 C 29.124893,22.685593 28.896325,22.126203 28.753278,21.589743 27.963058,18.626239 26.173225,15.316996 24.16337,13.103406 22.591835,11.372567 19.937679,9.6369578 18.771518,9.0264658 17.605357,8.4159738 17.867907,6.9283046 18.713971,6.4142866 c 0.846064,-0.514018 2.91823,1.5977702 2.91823,1.5977702 l 1.109476,0.797458 c 2.353026,1.6912842 5.126688,5.1482812 6.50434,8.1067842 0.571968,1.228297 1.461455,3.72834 1.65142,4.641572 0.136157,0.654559 0.113413,0.768935 -0.225765,1.135296 -0.433062,0.467769 -1.050154,0.528889 -1.410466,0.139702 z"
       id="path4"
       sodipodi:nodetypes="sscssssssscsssssssscssssscsssssssssscsssssssccssssssscssssssscssscscssssssssssssccsssssssssssssssssssssssssscsssssssscsssssssssssssssssssssssssssssssssssssssssssssssssssssssssczzssssscs" /></g></svg>
